# xmcd CD database file
#
# Track frame offsets:
#	150
#	3023
#	24256
#	46561
#	70271
#	92421
#	113555
#	135997
#	151693
#	173977
#	194375
#	222261
#	243195
#	264383
#	282712
#	308668
#	331518
#	345073
#
# Disc length: 4635 seconds
#
# Revision: 0
# Processed by: cddbd v1.5.1PL0 Copyright (c) Steve Scherf et al.
# Submitted via: CDex 1.51
#
DISCID=d4121912
DTITLE=Bad Boy DJ's - Sing Shady 3, We Told You We Would't Stop
DYEAR=2001
DGENRE=India
TTITLE0=Intro
TTITLE1=Hare Hare
TTITLE2=Nachna Onda Nahi
TTITLE3=Shikwa
TTITLE4=Chandrigarh
TTITLE5=Maine Koi Jaadu
TTITLE6=Galla Goriya
TTITLE7=Tere Jaise Yaar Kahan
TTITLE8=Bheegi Bheegi Raaton Main
TTITLE9=Mundiya Ke Back
TTITLE10=Yeh Hawai
TTITLE11=Neeliya Nasheeliya
TTITLE12=Dit Nasheen
TTITLE13=Sahotas
TTITLE14=Dupatta
TTITLE15=Tappe
TTITLE16=Aaj Phir Jeene Ki
TTITLE17=Outre (Musafir Good Bye From The Bad Boys)
EXTD=YEAR: 2001
EXTT0=
EXTT1=
EXTT2=
EXTT3=
EXTT4=
EXTT5=
EXTT6=
EXTT7=
EXTT8=
EXTT9=
EXTT10=
EXTT11=
EXTT12=
EXTT13=
EXTT14=
EXTT15=
EXTT16=
EXTT17=
PLAYORDER=
